<svg xmlns="http://www.w3.org/2000/svg" data-name="Layer 3" viewBox="0 0 64 64" id="portfolio"><path fill="#383838" d="M17 19V17a2.471 2.471 0 002.434-2.111L20.2 9.511l1.981.283-.769 5.378A4.48 4.48 0 0117 19zM47 19a4.526 4.526 0 01-4.479-3.795l-.9-5.388L43.6 9.488l.9 5.388A2.533 2.533 0 0047 17z"></path><path fill="#4c4c4c" d="M58,17H6a4,4,0,0,0-4,4V53a4,4,0,0,0,4,4H58a4,4,0,0,0,4-4V21A4,4,0,0,0,58,17Z"></path><path fill="#5b5b5b" d="M58,17H6a3.974,3.974,0,0,0-.892.108A3.974,3.974,0,0,0,5,18V50a4,4,0,0,0,4,4H61a3.974,3.974,0,0,0,.892-.108A3.974,3.974,0,0,0,62,53V21A4,4,0,0,0,58,17Z"></path><path fill="#383838" d="M11,42H53a5.7,5.7,0,0,0,5.644-4.781l2.981-17.888A3.993,3.993,0,0,0,58,17H6a3.993,3.993,0,0,0-3.625,2.331L5.356,37.219A5.7,5.7,0,0,0,11,42Z"></path><path fill="#fcb732" d="M11,41H53a4.723,4.723,0,0,0,4.658-3.946l3.15-18.9A3.989,3.989,0,0,0,58,17H6a3.989,3.989,0,0,0-2.808,1.154l3.15,18.9A4.723,4.723,0,0,0,11,41Z"></path><rect width="26" height="4" x="19" y="7" fill="#fcb732" rx="2"></rect><rect width="14" height="2" x="45" y="48" fill="#fff"></rect><path fill="#4c4c4c" d="M7.273,17,9.6,34.028A3.436,3.436,0,0,0,13,37H51a3.436,3.436,0,0,0,3.405-2.972l2.326-17.054Z"></path><path fill="#5b5b5b" d="M10.269,17l2.053,15.056a3.436,3.436,0,0,0,3.405,2.972h38a3.463,3.463,0,0,0,.385-.035,3.356,3.356,0,0,0,.293-.963l2.326-17.054Z"></path><path fill="#c1cfe8" d="M19 35H17a2 2 0 00-2 2v6a2 2 0 002 2h2a2 2 0 002-2V37A2 2 0 0019 35zM45 35h2a2 2 0 012 2v6a2 2 0 01-2 2H45a2 2 0 01-2-2V37A2 2 0 0145 35z"></path><path fill="#d7e0ef" d="M19 35H17v6a2 2 0 002 2h2V37A2 2 0 0019 35zM47 35H45v6a2 2 0 002 2h2V37A2 2 0 0047 35z"></path><rect width="20" height="2" x="39" y="52" fill="#fff"></rect><path fill="#ffc76f" d="M43,7H21a2,2,0,0,0,2,2H45A2,2,0,0,0,43,7Z"></path></svg>